<?xml version="1.0" encoding="UTF-8" standalone="no"?>
<!DOCTYPE svg PUBLIC "-//W3C//DTD SVG 1.1//EN" "http://www.w3.org/Graphics/SVG/1.1/DTD/svg11.dtd">
<svg version="1.1" xmlns="http://www.w3.org/2000/svg" xmlns:xlink="http://www.w3.org/1999/xlink" preserveAspectRatio="xMidYMid meet" viewBox="0 0 76 53.7" width="76" height="53.7"><defs><path d="M45.79 5.97L42.23 5.97L39.47 5.97L39.4 5.97L37.33 5.97L33.07 5.97L33.07 0L14.09 0L14.09 5.97L7.76 5.97L7.76 11.93L1.43 11.93L1.43 17.9L1.43 23.87L7.76 23.87L7.76 29.83L14.09 29.83L14.09 35.8L20.42 35.8L20.42 41.77L26.75 41.77L26.75 47.73L33.07 47.73L33.07 53.7L45.79 53.7L45.79 47.73L52.12 47.73L52.12 41.77L58.45 41.77L58.45 35.8L64.78 35.8L64.78 29.83L71.11 29.83L71.11 23.87L77.43 23.87L77.43 11.93L71.11 11.93L71.11 5.97L64.78 5.97L64.78 0L45.79 0L45.79 5.97ZM20.43 11.26L20.43 5.2L26.77 5.2L26.77 11.26L20.43 11.26L20.43 17.32L14.1 17.32L14.1 11.26L20.43 11.26Z" id="a1baMkt4nF"></path><path d="M27.17 17.65L33.17 17.65L33.17 23.35L27.17 23.35L27.17 17.65Z" id="b3BA7R9iCO"></path><path d="M27.17 32.25L51.7 32.25L51.7 37.95L27.17 37.95L27.17 32.25Z" id="aaEsq3Dqr8"></path><path d="M45.7 17.65L51.7 17.65L51.7 23.35L45.7 23.35L45.7 17.65Z" id="a7filhWyUU"></path></defs><g><g><g><use xlink:href="#a1baMkt4nF" opacity="1" fill="#50e3c2" fill-opacity="1"></use><g><use xlink:href="#a1baMkt4nF" opacity="1" fill-opacity="0" stroke="#000000" stroke-width="1" stroke-opacity="0"></use></g></g><g><use xlink:href="#b3BA7R9iCO" opacity="1" fill="#f3f5f8" fill-opacity="1"></use></g><g><use xlink:href="#aaEsq3Dqr8" opacity="1" fill="#f3f5f8" fill-opacity="1"></use></g><g><use xlink:href="#a7filhWyUU" opacity="1" fill="#f3f5f8" fill-opacity="1"></use></g></g></g></svg>