<?xml version="1.0" encoding="UTF-8" standalone="no"?>
<!DOCTYPE svg PUBLIC "-//W3C//DTD SVG 1.1//EN" "http://www.w3.org/Graphics/SVG/1.1/DTD/svg11.dtd">
<svg version="1.1" xmlns="http://www.w3.org/2000/svg" xmlns:xlink="http://www.w3.org/1999/xlink" preserveAspectRatio="xMidYMid meet" viewBox="0 0 260 200" width="260" height="200"><defs><path d="M129.4 57.08L123.67 57.08L123.52 57.08L119.22 57.08L110.38 57.08L110.38 42.97L70.97 42.97L70.97 57.08L57.82 57.08L57.82 71.17L44.68 71.17L44.68 85.27L44.68 99.38L57.82 99.38L57.82 113.47L70.97 113.47L70.97 127.58L84.11 127.58L84.11 141.69L97.25 141.69L97.25 155.77L110.38 155.77L110.38 169.88L136.79 169.88L136.79 155.77L149.93 155.77L149.93 141.69L163.08 141.69L163.08 127.58L176.22 127.58L176.22 113.47L189.36 113.47L189.36 99.38L202.49 99.38L202.49 71.17L189.36 71.17L189.36 57.08L176.22 57.08L176.22 42.97L136.79 42.97L136.79 57.08L129.4 57.08ZM84.13 55.26L97.3 55.26L97.3 69.58L84.13 69.58L84.13 83.9L70.99 83.9L70.99 69.58L84.13 69.58L84.13 55.26Z" id="a1OF8AguyU"></path><path d="M109.51 79.11L109.51 94.83L94.48 94.83L94.48 79.11L109.51 79.11Z" id="g8psPlHifW"></path><path d="M155.93 115.15L155.93 130.88L94.48 130.88L94.48 115.15L155.93 115.15Z" id="ajgZXTu16"></path><path d="M152.74 79.11L152.74 94.83L137.71 94.83L137.71 79.11L152.74 79.11Z" id="bdMKgZtb4"></path></defs><g><g><g><use xlink:href="#a1OF8AguyU" opacity="1" fill="#50e3c2" fill-opacity="1"></use><g><use xlink:href="#a1OF8AguyU" opacity="1" fill-opacity="0" stroke="#000000" stroke-width="1" stroke-opacity="0"></use></g></g><g><use xlink:href="#g8psPlHifW" opacity="1" fill="#f3f5f8" fill-opacity="1"></use><g><use xlink:href="#g8psPlHifW" opacity="1" fill-opacity="0" stroke="#000000" stroke-width="1" stroke-opacity="0"></use></g></g><g><use xlink:href="#ajgZXTu16" opacity="1" fill="#f3f5f8" fill-opacity="1"></use><g><use xlink:href="#ajgZXTu16" opacity="1" fill-opacity="0" stroke="#000000" stroke-width="1" stroke-opacity="0"></use></g></g><g><use xlink:href="#bdMKgZtb4" opacity="1" fill="#f3f5f8" fill-opacity="1"></use><g><use xlink:href="#bdMKgZtb4" opacity="1" fill-opacity="0" stroke="#000000" stroke-width="1" stroke-opacity="0"></use></g></g></g></g></svg>