<svg width="20" height="20" xmlns="http://www.w3.org/2000/svg" xmlns:xlink="http://www.w3.org/1999/xlink"><defs><path d="M8.5 0C13.1944204 0 17 3.80557963 17 8.5c0 1.9865245-.6814668 3.8138839-1.8233795 5.2610573l4.5304863 4.5318359c.3905243.3905243.3905243 1.0236893 0 1.4142136-.3905243.3905243-1.0236893.3905243-1.4142136 0l-4.5318359-4.5304863C12.3138839 16.3185332 10.4865245 17 8.5 17 3.80557963 17 0 13.1944204 0 8.5 0 3.80557963 3.80557963 0 8.5 0zm0 2C4.91014913 2 2 4.91014913 2 8.5 2 12.0898509 4.91014913 15 8.5 15c1.7704128 0 3.3755097-.7078016 4.5477521-1.8558661l.0451411-.0512407c.0161269-.0161269.0326676-.0315878.0495879-.0463828C14.2921984 11.8755097 15 10.2704128 15 8.5 15 4.91014913 12.0898509 2 8.5 2z" id="a"/></defs><use fill="#9CAFC3" fill-rule="nonzero" xlink:href="#a"/></svg>